<svg aria-roledescription="flowchart-v2" role="graphics-document document" viewBox="-8 -8 1324.958984375 395" style="max-width: 1324.96px; background-color: white;" xmlns:xlink="http://www.w3.org/1999/xlink" xmlns="http://www.w3.org/2000/svg" width="100%" id="my-svg"><style>#my-svg{font-family:"trebuchet ms",verdana,arial,sans-serif;font-size:16px;fill:#333;}#my-svg .error-icon{fill:#552222;}#my-svg .error-text{fill:#552222;stroke:#552222;}#my-svg .edge-thickness-normal{stroke-width:2px;}#my-svg .edge-thickness-thick{stroke-width:3.5px;}#my-svg .edge-pattern-solid{stroke-dasharray:0;}#my-svg .edge-pattern-dashed{stroke-dasharray:3;}#my-svg .edge-pattern-dotted{stroke-dasharray:2;}#my-svg .marker{fill:#333333;stroke:#333333;}#my-svg .marker.cross{stroke:#333333;}#my-svg svg{font-family:"trebuchet ms",verdana,arial,sans-serif;font-size:16px;}#my-svg .label{font-family:"trebuchet ms",verdana,arial,sans-serif;color:#333;}#my-svg .cluster-label text{fill:#333;}#my-svg .cluster-label span,#my-svg p{color:#333;}#my-svg .label text,#my-svg span,#my-svg p{fill:#333;color:#333;}#my-svg .node rect,#my-svg .node circle,#my-svg .node ellipse,#my-svg .node polygon,#my-svg .node path{fill:#ECECFF;stroke:#9370DB;stroke-width:1px;}#my-svg .flowchart-label text{text-anchor:middle;}#my-svg .node .katex path{fill:#000;stroke:#000;stroke-width:1px;}#my-svg .node .label{text-align:center;}#my-svg .node.clickable{cursor:pointer;}#my-svg .arrowheadPath{fill:#333333;}#my-svg .edgePath .path{stroke:#333333;stroke-width:2.0px;}#my-svg .flowchart-link{stroke:#333333;fill:none;}#my-svg .edgeLabel{background-color:#e8e8e8;text-align:center;}#my-svg .edgeLabel rect{opacity:0.5;background-color:#e8e8e8;fill:#e8e8e8;}#my-svg .labelBkg{background-color:rgba(232, 232, 232, 0.5);}#my-svg .cluster rect{fill:#ffffde;stroke:#aaaa33;stroke-width:1px;}#my-svg .cluster text{fill:#333;}#my-svg .cluster span,#my-svg p{color:#333;}#my-svg div.mermaidTooltip{position:absolute;text-align:center;max-width:200px;padding:2px;font-family:"trebuchet ms",verdana,arial,sans-serif;font-size:12px;background:hsl(80, 100%, 96.2745098039%);border:1px solid #aaaa33;border-radius:2px;pointer-events:none;z-index:100;}#my-svg .flowchartTitleText{text-anchor:middle;font-size:18px;fill:#333;}#my-svg :root{--mermaid-font-family:"trebuchet ms",verdana,arial,sans-serif;}</style><g><marker orient="auto" markerHeight="12" markerWidth="12" markerUnits="userSpaceOnUse" refY="5" refX="6" viewBox="0 0 10 10" class="marker flowchart" id="my-svg_flowchart-pointEnd"><path style="stroke-width: 1; stroke-dasharray: 1, 0;" class="arrowMarkerPath" d="M 0 0 L 10 5 L 0 10 z"/></marker><marker orient="auto" markerHeight="12" markerWidth="12" markerUnits="userSpaceOnUse" refY="5" refX="4.5" viewBox="0 0 10 10" class="marker flowchart" id="my-svg_flowchart-pointStart"><path style="stroke-width: 1; stroke-dasharray: 1, 0;" class="arrowMarkerPath" d="M 0 5 L 10 10 L 10 0 z"/></marker><marker orient="auto" markerHeight="11" markerWidth="11" markerUnits="userSpaceOnUse" refY="5" refX="11" viewBox="0 0 10 10" class="marker flowchart" id="my-svg_flowchart-circleEnd"><circle style="stroke-width: 1; stroke-dasharray: 1, 0;" class="arrowMarkerPath" r="5" cy="5" cx="5"/></marker><marker orient="auto" markerHeight="11" markerWidth="11" markerUnits="userSpaceOnUse" refY="5" refX="-1" viewBox="0 0 10 10" class="marker flowchart" id="my-svg_flowchart-circleStart"><circle style="stroke-width: 1; stroke-dasharray: 1, 0;" class="arrowMarkerPath" r="5" cy="5" cx="5"/></marker><marker orient="auto" markerHeight="11" markerWidth="11" markerUnits="userSpaceOnUse" refY="5.2" refX="12" viewBox="0 0 11 11" class="marker cross flowchart" id="my-svg_flowchart-crossEnd"><path style="stroke-width: 2; stroke-dasharray: 1, 0;" class="arrowMarkerPath" d="M 1,1 l 9,9 M 10,1 l -9,9"/></marker><marker orient="auto" markerHeight="11" markerWidth="11" markerUnits="userSpaceOnUse" refY="5.2" refX="-1" viewBox="0 0 11 11" class="marker cross flowchart" id="my-svg_flowchart-crossStart"><path style="stroke-width: 2; stroke-dasharray: 1, 0;" class="arrowMarkerPath" d="M 1,1 l 9,9 M 10,1 l -9,9"/></marker><g class="root"><g class="clusters"><g id="H" class="cluster default flowchart-label"><rect height="181" width="411.646484375" y="198" x="35.296875" ry="0" rx="0" style=""/><g transform="translate(241.1201171875, 198)" class="cluster-label"><text style=""><tspan class="row" x="0" dy="1em" xml:space="preserve">Docker Container N</tspan></text></g></g><g id="G" class="cluster default flowchart-label"><rect height="181" width="411.0078125" y="198" x="466.943359375" ry="0" rx="0" style=""/><g transform="translate(672.447265625, 198)" class="cluster-label"><text style=""><tspan class="row" x="0" dy="1em" xml:space="preserve">Docker Container 2</tspan></text></g></g><g id="F" class="cluster default flowchart-label"><rect height="181" width="411.0078125" y="198" x="897.951171875" ry="0" rx="0" style=""/><g transform="translate(1103.455078125, 198)" class="cluster-label"><text style=""><tspan class="row" x="0" dy="1em" xml:space="preserve">Docker Container 1</tspan></text></g></g></g><g class="edgePaths"><path marker-end="url(#my-svg_flowchart-pointEnd)" style="fill:none;" class="edge-thickness-normal edge-pattern-solid flowchart-link LS-A LE-C" id="L-A-C-0" d="M679.306,32L687.785,37.583C696.264,43.167,713.222,54.333,721.701,64.617C730.18,74.9,730.18,84.3,730.18,89L730.18,93.7"/><path marker-end="url(#my-svg_flowchart-pointEnd)" marker-start="url(#my-svg_flowchart-pointStart)" style="fill:none;" class="edge-thickness-normal edge-pattern-solid flowchart-link LS-A LE-J" id="L-A-J-0" d="M718.275,27.068L754.888,33.474C791.501,39.879,864.726,52.689,901.339,67.345C937.951,82,937.951,98.5,937.951,115C937.951,131.5,937.951,148,937.951,161.833C937.951,175.667,937.951,186.833,937.951,199.25C937.951,211.667,937.951,225.333,937.951,240.417C937.951,255.5,937.951,272,957.433,286.496C976.915,300.993,1015.878,313.485,1035.36,319.732L1054.842,325.978"/><path marker-end="url(#my-svg_flowchart-pointEnd)" marker-start="url(#my-svg_flowchart-pointStart)" style="fill:none;" class="edge-thickness-normal edge-pattern-solid flowchart-link LS-A LE-L" id="L-A-L-0" d="M602.122,33.68L586.259,38.984C570.396,44.287,538.67,54.893,522.806,68.447C506.943,82,506.943,98.5,506.943,115C506.943,131.5,506.943,148,506.943,161.833C506.943,175.667,506.943,186.833,506.943,199.25C506.943,211.667,506.943,225.333,506.943,240.417C506.943,255.5,506.943,272,521.267,286C535.59,300,564.236,311.499,578.559,317.249L592.882,322.999"/><path marker-end="url(#my-svg_flowchart-pointEnd)" marker-start="url(#my-svg_flowchart-pointStart)" style="fill:none;" class="edge-thickness-normal edge-pattern-solid flowchart-link LS-A LE-N" id="L-A-N-0" d="M591.68,21.407L505.616,28.756C419.552,36.105,247.425,50.802,161.361,66.401C75.297,82,75.297,98.5,75.297,115C75.297,131.5,75.297,148,75.297,161.833C75.297,175.667,75.297,186.833,75.297,199.25C75.297,211.667,75.297,225.333,75.297,240.417C75.297,255.5,75.297,272,89.399,285.913C103.502,299.827,131.707,311.154,145.809,316.817L159.912,322.481"/><path marker-end="url(#my-svg_flowchart-pointEnd)" style="fill:none;stroke-width:2px;stroke-dasharray:3;" class="edge-thickness-normal edge-pattern-dotted flowchart-link LS-I LE-J" id="L-I-J-0" d="M1117.126,255L1107.807,260.583C1098.488,266.167,1079.849,277.333,1073.571,287.752C1067.292,298.171,1073.374,307.842,1076.415,312.678L1079.455,317.513"/><path marker-end="url(#my-svg_flowchart-pointEnd)" style="fill:none;stroke-width:2px;stroke-dasharray:3;" class="edge-thickness-normal edge-pattern-dotted flowchart-link LS-J LE-I" id="L-J-I-0" d="M1124.787,324.537L1139.264,318.531C1153.741,312.525,1182.695,300.512,1190.236,289.444C1197.777,278.375,1183.905,268.25,1176.969,263.187L1170.033,258.125"/><path marker-end="url(#my-svg_flowchart-pointEnd)" style="fill:none;stroke-width:2px;stroke-dasharray:3;" class="edge-thickness-normal edge-pattern-dotted flowchart-link LS-K LE-L" id="L-K-L-0" d="M697.864,255L686.587,260.583C675.31,266.167,652.757,277.333,641.484,287.617C630.212,297.9,630.221,307.3,630.225,312L630.23,316.7"/><path marker-end="url(#my-svg_flowchart-pointEnd)" style="fill:none;stroke-width:2px;stroke-dasharray:3;" class="edge-thickness-normal edge-pattern-dotted flowchart-link LS-L LE-K" id="L-L-K-0" d="M662.699,327.32L682.356,320.85C702.013,314.38,741.327,301.44,755.923,290.005C770.518,278.57,760.396,268.641,755.335,263.676L750.274,258.711"/><path marker-end="url(#my-svg_flowchart-pointEnd)" style="fill:none;stroke-width:2px;stroke-dasharray:3;" class="edge-thickness-normal edge-pattern-dotted flowchart-link LS-M LE-N" id="L-M-N-0" d="M259.183,255L249.078,260.583C238.974,266.167,218.765,277.333,208.661,287.617C198.557,297.9,198.557,307.3,198.557,312L198.557,316.7"/><path marker-end="url(#my-svg_flowchart-pointEnd)" style="fill:none;stroke-width:2px;stroke-dasharray:3;" class="edge-thickness-normal edge-pattern-dotted flowchart-link LS-N LE-M" id="L-N-M-0" d="M232.283,326.903L251.735,320.502C271.187,314.102,310.09,301.301,323.363,289.874C336.636,278.448,324.279,268.396,318.1,263.37L311.921,258.344"/><path marker-end="url(#my-svg_flowchart-pointEnd)" style="fill:none;" class="edge-thickness-normal edge-pattern-solid flowchart-link LS-C LE-F" id="L-C-F-0" d="M774.473,120.3L836.033,127.667C897.592,135.034,1020.712,149.767,1082.272,161.833C1143.832,173.9,1143.832,183.3,1143.832,188L1143.832,192.7"/><path marker-end="url(#my-svg_flowchart-pointEnd)" style="fill:none;" class="edge-thickness-normal edge-pattern-solid flowchart-link LS-C LE-G" id="L-C-G-0" d="M730.18,131L730.18,136.583C730.18,142.167,730.18,153.333,730.18,163.617C730.18,173.9,730.18,183.3,730.18,188L730.18,192.7"/><path marker-end="url(#my-svg_flowchart-pointEnd)" style="fill:none;" class="edge-thickness-normal edge-pattern-solid flowchart-link LS-C LE-H" id="L-C-H-0" d="M685.887,119.96L619.595,127.383C553.304,134.807,420.721,149.653,354.43,161.777C288.139,173.9,288.139,183.3,288.139,188L288.139,192.7"/></g><g class="edgeLabels"><g transform="translate(730.1796875, 65.5)" class="edgeLabel"><g transform="translate(-55.421875, -8.5)" class="label"><rect height="18.590721130371094" width="111.14166259765625" ry="0" rx="0"/><text style=""><tspan class="row" x="0" dy="1em" xml:space="preserve">HTTP API Calls</tspan></text></g></g><g transform="translate(937.951171875, 164.5)" class="edgeLabel"><g transform="translate(-75.296875, -8.5)" class="label"><rect height="18.590721130371094" width="150.38941955566406" ry="0" rx="0"/><text style=""><tspan class="row" x="0" dy="1em" xml:space="preserve">WebRTC Connection</tspan></text></g></g><g transform="translate(506.943359375, 164.5)" class="edgeLabel"><g transform="translate(-75.296875, -8.5)" class="label"><rect height="18.590721130371094" width="150.38941955566406" ry="0" rx="0"/><text style=""><tspan class="row" x="0" dy="1em" xml:space="preserve">WebRTC Connection</tspan></text></g></g><g transform="translate(75.296875, 164.5)" class="edgeLabel"><g transform="translate(-75.296875, -8.5)" class="label"><rect height="18.590721130371094" width="150.38941955566406" ry="0" rx="0"/><text style=""><tspan class="row" x="0" dy="1em" xml:space="preserve">WebRTC Connection</tspan></text></g></g><g transform="translate(1061.2109375, 288.5)" class="edgeLabel"><g transform="translate(-69.515625, -8.5)" class="label"><rect height="18.590721130371094" width="138.9037322998047" ry="0" rx="0"/><text style=""><tspan class="row" x="0" dy="1em" xml:space="preserve">Video/Audio Output</tspan></text></g></g><g transform="translate(1211.6484375, 288.5)" class="edgeLabel"><g transform="translate(-60.921875, -8.5)" class="label"><rect height="18.590721130371094" width="122.11849975585938" ry="0" rx="0"/><text style=""><tspan class="row" x="0" dy="1em" xml:space="preserve">Input Commands</tspan></text></g></g><g transform="translate(630.203125, 288.5)" class="edgeLabel"><g transform="translate(-69.515625, -8.5)" class="label"><rect height="18.590721130371094" width="138.9037322998047" ry="0" rx="0"/><text style=""><tspan class="row" x="0" dy="1em" xml:space="preserve">Video/Audio Output</tspan></text></g></g><g transform="translate(780.640625, 288.5)" class="edgeLabel"><g transform="translate(-60.921875, -8.5)" class="label"><rect height="18.590721130371094" width="122.11849975585938" ry="0" rx="0"/><text style=""><tspan class="row" x="0" dy="1em" xml:space="preserve">Input Commands</tspan></text></g></g><g transform="translate(198.556640625, 288.5)" class="edgeLabel"><g transform="translate(-69.515625, -8.5)" class="label"><rect height="18.590721130371094" width="138.9037322998047" ry="0" rx="0"/><text style=""><tspan class="row" x="0" dy="1em" xml:space="preserve">Video/Audio Output</tspan></text></g></g><g transform="translate(348.994140625, 288.5)" class="edgeLabel"><g transform="translate(-60.921875, -8.5)" class="label"><rect height="18.590721130371094" width="122.11849975585938" ry="0" rx="0"/><text style=""><tspan class="row" x="0" dy="1em" xml:space="preserve">Input Commands</tspan></text></g></g><g transform="translate(975.78369, 144.39038)" class="edgeLabel"><g transform="translate(-61.70703125, -8.5)" class="label"><rect height="18.590721130371094" width="122.58256530761719" ry="0" rx="0"/><text style=""><tspan class="row" x="0" dy="1em" xml:space="preserve">Spawn Container</tspan></text></g></g><g transform="translate(730.1796875, 164.5)" class="edgeLabel"><g transform="translate(-61.70703125, -8.5)" class="label"><rect height="18.590721130371094" width="122.58256530761719" ry="0" rx="0"/><text style=""><tspan class="row" x="0" dy="1em" xml:space="preserve">Spawn Container</tspan></text></g></g><g transform="translate(470.36674, 144.094)" class="edgeLabel"><g transform="translate(-61.70703125, -8.5)" class="label"><rect height="18.590721130371094" width="122.58256530761719" ry="0" rx="0"/><text style=""><tspan class="row" x="0" dy="1em" xml:space="preserve">Spawn Container</tspan></text></g></g></g><g class="nodes"><g transform="translate(288.138671875, 239)" data-id="M" data-node="true" id="flowchart-M-26" class="node default default flowchart-label"><rect height="32" width="159.953125" y="-16" x="-79.9765625" ry="0" rx="0" style="" class="basic label-container"/><g transform="translate(0, -8.5)" style="" class="label"><rect/><text style=""><tspan class="row" x="0" dy="1em" xml:space="preserve">Emulator Instance N</tspan></text></g></g><g transform="translate(198.556640625, 338)" data-id="N" data-node="true" id="flowchart-N-7" class="node default default flowchart-label"><rect height="32" width="67.453125" y="-16" x="-33.7265625" ry="0" rx="0" style="" class="basic label-container"/><g transform="translate(0, -8.5)" style="" class="label"><rect/><text style=""><tspan class="row" x="0" dy="1em" xml:space="preserve">Shim N</tspan></text></g></g><g transform="translate(730.1796875, 239)" data-id="K" data-node="true" id="flowchart-K-20" class="node default default flowchart-label"><rect height="32" width="157.3984375" y="-16" x="-78.69921875" ry="0" rx="0" style="" class="basic label-container"/><g transform="translate(0, -8.5)" style="" class="label"><rect/><text style=""><tspan class="row" x="0" dy="1em" xml:space="preserve">Emulator Instance 2</tspan></text></g></g><g transform="translate(630.25, 338)" data-id="L" data-node="true" id="flowchart-L-5" class="node default default flowchart-label"><rect height="32" width="64.8984375" y="-16" x="-32.44921875" ry="0" rx="0" style="" class="basic label-container"/><g transform="translate(0, -8.5)" style="" class="label"><rect/><text style=""><tspan class="row" x="0" dy="1em" xml:space="preserve">Shim 2</tspan></text></g></g><g transform="translate(1143.83203125, 239)" data-id="I" data-node="true" id="flowchart-I-14" class="node default default flowchart-label"><rect height="32" width="157.3984375" y="-16" x="-78.69921875" ry="0" rx="0" style="" class="basic label-container"/><g transform="translate(0, -8.5)" style="" class="label"><rect/><text style=""><tspan class="row" x="0" dy="1em" xml:space="preserve">Emulator Instance 1</tspan></text></g></g><g transform="translate(1092.337890625, 338)" data-id="J" data-node="true" id="flowchart-J-3" class="node default default flowchart-label"><rect height="32" width="64.8984375" y="-16" x="-32.44921875" ry="0" rx="0" style="" class="basic label-container"/><g transform="translate(0, -8.5)" style="" class="label"><rect/><text style=""><tspan class="row" x="0" dy="1em" xml:space="preserve">Shim 1</tspan></text></g></g><g transform="translate(655.0078125, 16)" data-id="A" data-node="true" id="flowchart-A-0" class="node default default flowchart-label"><rect height="32" width="116.09375" y="-16" x="-58.046875" ry="0" rx="0" style="" class="basic label-container"/><g transform="translate(0, -8.5)" style="" class="label"><rect/><text style=""><tspan class="row" x="0" dy="1em" xml:space="preserve">Web Frontend</tspan></text></g></g><g transform="translate(730.1796875, 115)" data-id="C" data-node="true" id="flowchart-C-1" class="node default default flowchart-label"><rect height="32" width="88.5859375" y="-16" x="-44.29296875" ry="0" rx="0" style="" class="basic label-container"/><g transform="translate(0, -8.5)" style="" class="label"><rect/><text style=""><tspan class="row" x="0" dy="1em" xml:space="preserve">Go Server</tspan></text></g></g></g></g></g></svg>